<?xml version="1.0" encoding="UTF-8" standalone="no"?>
<!-- Created with Inkscape (http://www.inkscape.org/) -->

<svg
   width="105.83334mm"
   height="66.145844mm"
   viewBox="0 0 105.83334 66.145844"
   version="1.1"
   id="svg5"
   xml:space="preserve"
   inkscape:version="1.2 (dc2aedaf03, 2022-05-15)"
   sodipodi:docname="brakes-icon-platinum.svg"
   xmlns:inkscape="http://www.inkscape.org/namespaces/inkscape"
   xmlns:sodipodi="http://sodipodi.sourceforge.net/DTD/sodipodi-0.dtd"
   xmlns="http://www.w3.org/2000/svg"
   xmlns:svg="http://www.w3.org/2000/svg"><sodipodi:namedview
     id="namedview7"
     pagecolor="#ffffff"
     bordercolor="#000000"
     borderopacity="0.25"
     inkscape:showpageshadow="2"
     inkscape:pageopacity="0.0"
     inkscape:pagecheckerboard="0"
     inkscape:deskcolor="#d1d1d1"
     inkscape:document-units="mm"
     showgrid="false"
     inkscape:zoom="1.1441657"
     inkscape:cx="278.36877"
     inkscape:cy="20.538983"
     inkscape:window-width="1920"
     inkscape:window-height="1001"
     inkscape:window-x="-9"
     inkscape:window-y="-9"
     inkscape:window-maximized="1"
     inkscape:current-layer="layer1" /><defs
     id="defs2" /><g
     inkscape:label="Layer 1"
     inkscape:groupmode="layer"
     id="layer1"
     transform="translate(-46.361858,-197.70306)"><rect
       style="fill:#fafafa;fill-opacity:1;stroke-width:0.27226"
       id="rect306"
       width="105.83334"
       height="66.145836"
       x="46.361858"
       y="197.70306" /><g
       id="surface289199492"
       transform="matrix(0.05392309,0,0,0.05392309,86.049363,216.39653)"><path
         style="fill:#000000;fill-opacity:1;fill-rule:nonzero;stroke:none"
         d="M 266.66797,43.199219 V 32 C 266.66797,26.113281 261.88672,21.332031 256,21.332031 114.83594,21.332031 0,136.17187 0,277.33203 0,283.22266 4.777344,288 10.667969,288 H 21.867188 C 27.5,412.4375 130.19922,512 256,512 c 129.38672,0 234.66797,-105.28125 234.66797,-234.66797 0,-125.80078 -99.5625,-228.499999 -224,-234.132811 z M 245.33203,42.902344 V 85.609375 C 147.94531,90.988281 69.652344,169.28125 64.296875,266.66797 H 21.566406 C 27.03125,145.75 124.41797,48.339844 245.33203,42.902344 Z M 256,490.66797 C 141.97266,490.66797 48.8125,400.66016 43.199219,288 h 31.46875 c 5.886719,0 10.664062,-4.77734 10.664062,-10.66797 0,-94.10156 76.566409,-170.66406 170.667969,-170.66406 5.88672,0 10.66797,-4.78125 10.66797,-10.66797 V 64.535156 c 112.66015,5.609375 202.66406,98.773434 202.66406,212.796874 0,117.63281 -95.69922,213.33594 -213.33203,213.33594 z m 0,0"
         id="path8528" /><path
         style="fill:#000000;fill-opacity:1;fill-rule:nonzero;stroke:none"
         d="m 384,277.33203 c 0,-70.58984 -57.40625,-128 -128,-128 -70.59375,0 -128,57.41016 -128,128 0,70.59375 57.40625,128 128,128 70.59375,0 128,-57.40625 128,-128 z M 256,384 c -58.81641,0 -106.66797,-47.85156 -106.66797,-106.66797 0,-58.81641 47.85156,-106.66406 106.66797,-106.66406 58.81641,0 106.66797,47.84765 106.66797,106.66406 C 362.66797,336.14844 314.81641,384 256,384 Z m 0,0"
         id="path8530" /><path
         style="fill:#000000;fill-opacity:1;fill-rule:nonzero;stroke:none"
         d="m 256,213.33203 c -35.28516,0 -64,28.71484 -64,64 0,35.28516 28.71484,64 64,64 35.28516,0 64,-28.71484 64,-64 0,-35.28516 -28.71484,-64 -64,-64 z M 256,320 c -23.53125,0 -42.66797,-19.13672 -42.66797,-42.66797 0,-23.53125 19.13672,-42.66406 42.66797,-42.66406 23.53125,0 42.66797,19.13281 42.66797,42.66406 C 298.66797,300.86328 279.53125,320 256,320 Z m 0,0"
         id="path8532" /><path
         style="fill:#000000;fill-opacity:1;fill-rule:nonzero;stroke:none"
         d="m 397.50391,372.67187 c -6.1211,9.04688 -13.16407,17.5586 -20.88672,25.30079 -7.69922,7.72265 -16.23438,14.74218 -25.30078,20.86328 -9.12891,6.16797 -18.87891,11.48047 -28.96875,15.74609 -5.41797,2.30469 -7.95704,8.55469 -5.65625,13.99219 1.70703,4.05469 5.67578,6.50781 9.8164,6.50781 1.38672,0 2.81641,-0.27734 4.16016,-0.85156 11.34765,-4.82422 22.33594,-10.77344 32.59765,-17.73047 10.19532,-6.89063 19.75391,-14.76172 28.41407,-23.44531 8.68359,-8.67969 16.55468,-18.23828 23.46875,-28.41407 3.28515,-4.88671 2.02343,-11.51953 -2.85938,-14.80468 -4.82422,-3.3086 -11.47656,-2.05078 -14.78515,2.83593 z m 0,0"
         id="path8534" /><path
         style="fill:#000000;fill-opacity:1;fill-rule:nonzero;stroke:none"
         d="m 422.46484,350.07812 c 1.21485,0.44922 2.45313,0.66407 3.69141,0.66407 4.32812,0 8.42578,-2.66797 10.00391,-6.97657 3.32812,-9.02343 6.01562,-18.36718 7.9375,-27.7539 1.21484,-5.78125 -2.51954,-11.41406 -8.30079,-12.60938 -5.67578,-1.08593 -11.41406,2.4961 -12.58593,8.30078 -1.72657,8.35938 -4.09766,16.66016 -7.0625,24.67969 -2.04688,5.50391 0.76953,11.64844 6.3164,13.69531 z m 0,0"
         id="path8536" /></g></g></svg>
