<?xml version="1.0" encoding="UTF-8" standalone="no"?>
<!-- Created with Inkscape (http://www.inkscape.org/) -->

<svg
   width="105.83334mm"
   height="66.145844mm"
   viewBox="0 0 105.83334 66.145844"
   version="1.1"
   id="svg5"
   xml:space="preserve"
   inkscape:version="1.2 (dc2aedaf03, 2022-05-15)"
   sodipodi:docname="ecu-icon-platinum.svg"
   xmlns:inkscape="http://www.inkscape.org/namespaces/inkscape"
   xmlns:sodipodi="http://sodipodi.sourceforge.net/DTD/sodipodi-0.dtd"
   xmlns="http://www.w3.org/2000/svg"
   xmlns:svg="http://www.w3.org/2000/svg"><sodipodi:namedview
     id="namedview7"
     pagecolor="#ffffff"
     bordercolor="#000000"
     borderopacity="0.25"
     inkscape:showpageshadow="2"
     inkscape:pageopacity="0.0"
     inkscape:pagecheckerboard="0"
     inkscape:deskcolor="#d1d1d1"
     inkscape:document-units="mm"
     showgrid="false"
     inkscape:zoom="1.1441657"
     inkscape:cx="275.74677"
     inkscape:cy="72.97894"
     inkscape:window-width="1920"
     inkscape:window-height="1001"
     inkscape:window-x="-9"
     inkscape:window-y="-9"
     inkscape:window-maximized="1"
     inkscape:current-layer="layer1" /><defs
     id="defs2" /><g
     inkscape:label="Layer 1"
     inkscape:groupmode="layer"
     id="layer1"
     transform="translate(-46.361858,-197.70306)"><rect
       style="fill:#fafafa;fill-opacity:1;stroke-width:0.27226"
       id="rect306"
       width="105.83334"
       height="66.145836"
       x="46.361858"
       y="197.70306" /><g
       style="fill:#000000"
       id="g18063"
       transform="matrix(0,0.5702227,-0.5702227,0,118.09588,212.52886)"
       inkscape:transform-center-x="-33.99311"
       inkscape:transform-center-y="-36.999303"><path
         d="m 21,4 c -2.757812,0 -5,2.242188 -5,5 v 1 h -1 c -1.652344,0 -3,1.347656 -3,3 v 1 H 7 c -0.554687,0 -1,0.449219 -1,1 0,0.550781 0.445313,1 1,1 h 5 v 4 H 7 c -0.554687,0 -1,0.449219 -1,1 0,0.550781 0.445313,1 1,1 h 5 v 4 H 7 c -0.554687,0 -1,0.449219 -1,1 0,0.550781 0.445313,1 1,1 h 5 v 4 H 7 c -0.554687,0 -1,0.449219 -1,1 0,0.550781 0.445313,1 1,1 h 5 v 4 H 7 c -0.554687,0 -1,0.449219 -1,1 0,0.550781 0.445313,1 1,1 h 5 v 4 H 7 c -0.554687,0 -1,0.449219 -1,1 0,0.550781 0.445313,1 1,1 h 5 v 4 H 7 c -0.554687,0 -1,0.449219 -1,1 0,0.550781 0.445313,1 1,1 h 5 v 1 c 0,1.652344 1.347656,3 3,3 h 1 v 1 c 0,2.757813 2.242188,5 5,5 h 22 c 2.757813,0 5,-2.242187 5,-5 v -1 h 1 c 1.652344,0 3,-1.347656 3,-3 v -1 h 5 c 0.554688,0 1,-0.449219 1,-1 0,-0.550781 -0.445312,-1 -1,-1 h -5 v -4 h 5 c 0.554688,0 1,-0.449219 1,-1 0,-0.550781 -0.445312,-1 -1,-1 h -5 v -4 h 5 c 0.554688,0 1,-0.449219 1,-1 0,-0.550781 -0.445312,-1 -1,-1 h -5 v -4 h 5 c 0.554688,0 1,-0.449219 1,-1 0,-0.550781 -0.445312,-1 -1,-1 h -5 v -4 h 5 c 0.554688,0 1,-0.449219 1,-1 0,-0.550781 -0.445312,-1 -1,-1 h -5 v -4 h 5 c 0.554688,0 1,-0.449219 1,-1 0,-0.550781 -0.445312,-1 -1,-1 h -5 v -4 h 5 c 0.554688,0 1,-0.449219 1,-1 0,-0.550781 -0.445312,-1 -1,-1 h -5 v -1 c 0,-1.652344 -1.347656,-3 -3,-3 H 48 V 9 C 48,6.242188 45.757813,4 43,4 Z m 0,2 h 22 c 1.652344,0 3,1.347656 3,3 v 48 c 0,1.652344 -1.347656,3 -3,3 H 21 c -1.652344,0 -3,-1.347656 -3,-3 V 9 c 0,-1.652344 1.347656,-3 3,-3 z m 4,4 c -0.769531,0.0039 -1.535156,0.292969 -2.121094,0.878906 C 22.3125,11.445313 22,12.199219 22,13 c 0,0.800781 0.3125,1.554688 0.878906,2.121094 C 23.464844,15.707031 24.230469,16 25,16 25.769531,16 26.535156,15.707031 27.121094,15.121094 27.6875,14.554688 28,13.800781 28,13 28,12.199219 27.6875,11.445313 27.121094,10.878906 26.535156,10.292969 25.769531,10 25,10 Z m -10,2 h 1 v 42 h -1 c -0.550781,0 -1,-0.449219 -1,-1 V 13 c 0,-0.550781 0.449219,-1 1,-1 z m 10,0 c 0.257813,0 0.511719,0.09766 0.707031,0.292969 C 25.894531,12.480469 26,12.734375 26,13 c 0,0.265625 -0.105469,0.519531 -0.292969,0.707031 -0.390625,0.390625 -1.023437,0.390625 -1.414062,0 C 24.105469,13.519531 24,13.265625 24,13 24,12.734375 24.105469,12.480469 24.292969,12.292969 24.488281,12.097656 24.742188,12 25,12 Z m 23,0 h 1 c 0.550781,0 1,0.449219 1,1 v 40 c 0,0.550781 -0.449219,1 -1,1 H 48 Z M 24,42 c -0.554687,0 -1,0.449219 -1,1 0,0.550781 0.445313,1 1,1 h 16 c 0.554688,0 1,-0.449219 1,-1 0,-0.550781 -0.445312,-1 -1,-1 z m 0,4 c -0.554687,0 -1,0.449219 -1,1 0,0.550781 0.445313,1 1,1 h 5 c 0.554688,0 1,-0.449219 1,-1 0,-0.550781 -0.445312,-1 -1,-1 z m 9,0 c -0.554687,0 -1,0.449219 -1,1 0,0.550781 0.445313,1 1,1 h 2 c 0.554688,0 1,-0.449219 1,-1 0,-0.550781 -0.445312,-1 -1,-1 z m -11,8 c -0.554687,0 -1,0.449219 -1,1 v 2 c 0,0.550781 0.445313,1 1,1 0.554688,0 1,-0.449219 1,-1 v -2 c 0,-0.550781 -0.445312,-1 -1,-1 z m 5,0 c -0.554687,0 -1,0.449219 -1,1 v 2 c 0,0.550781 0.445313,1 1,1 0.554688,0 1,-0.449219 1,-1 v -2 c 0,-0.550781 -0.445312,-1 -1,-1 z m 5,0 c -0.554687,0 -1,0.449219 -1,1 v 2 c 0,0.550781 0.445313,1 1,1 0.554688,0 1,-0.449219 1,-1 v -2 c 0,-0.550781 -0.445312,-1 -1,-1 z m 5,0 c -0.554687,0 -1,0.449219 -1,1 v 2 c 0,0.550781 0.445313,1 1,1 0.554688,0 1,-0.449219 1,-1 v -2 c 0,-0.550781 -0.445312,-1 -1,-1 z m 5,0 c -0.554687,0 -1,0.449219 -1,1 v 2 c 0,0.550781 0.445313,1 1,1 0.554688,0 1,-0.449219 1,-1 v -2 c 0,-0.550781 -0.445312,-1 -1,-1 z"
         id="path18054" /></g></g></svg>
