<?xml version="1.0" encoding="UTF-8" standalone="no"?>
<!-- Created with Inkscape (http://www.inkscape.org/) -->

<svg
   width="105.83334mm"
   height="66.145844mm"
   viewBox="0 0 105.83334 66.145844"
   version="1.1"
   id="svg5"
   xml:space="preserve"
   inkscape:version="1.2 (dc2aedaf03, 2022-05-15)"
   sodipodi:docname="engine-icon-platinum.svg"
   xmlns:inkscape="http://www.inkscape.org/namespaces/inkscape"
   xmlns:sodipodi="http://sodipodi.sourceforge.net/DTD/sodipodi-0.dtd"
   xmlns="http://www.w3.org/2000/svg"
   xmlns:svg="http://www.w3.org/2000/svg"><sodipodi:namedview
     id="namedview7"
     pagecolor="#ffffff"
     bordercolor="#000000"
     borderopacity="0.25"
     inkscape:showpageshadow="2"
     inkscape:pageopacity="0.0"
     inkscape:pagecheckerboard="0"
     inkscape:deskcolor="#d1d1d1"
     inkscape:document-units="mm"
     showgrid="false"
     inkscape:zoom="1.1441657"
     inkscape:cx="275.74677"
     inkscape:cy="72.97894"
     inkscape:window-width="1920"
     inkscape:window-height="1001"
     inkscape:window-x="-9"
     inkscape:window-y="-9"
     inkscape:window-maximized="1"
     inkscape:current-layer="layer1" /><defs
     id="defs2" /><g
     inkscape:label="Layer 1"
     inkscape:groupmode="layer"
     id="layer1"
     transform="translate(-46.361858,-197.70306)"><rect
       style="fill:#fafafa;fill-opacity:1;stroke-width:0.27226"
       id="rect306"
       width="105.83334"
       height="66.145836"
       x="46.361858"
       y="197.70306" /><path
       style="fill:#000000;fill-opacity:1;fill-rule:nonzero;stroke:none;stroke-width:0.0674038"
       d="m 115.09593,234.3709 h -2.87573 c -0.39705,0 -0.71906,0.32201 -0.71906,0.71906 v 0.7188 h -1.43786 v -9.34649 c 0,-1.18931 -0.96788,-2.15693 -2.15692,-2.15693 h -0.71907 v -1.43812 h 0.71907 c 0.39678,0 0.7188,-0.32201 0.7188,-0.7188 v -1.43813 c 0,-1.18904 -0.96762,-2.15692 -2.15693,-2.15692 -1.18904,0 -2.15692,0.96788 -2.15692,2.15692 v 1.43813 c 0,0.39679 0.32227,0.7188 0.71906,0.7188 h 0.71906 v 1.43812 h -4.31384 v -1.43812 h 0.71879 c 0.39706,0 0.71907,-0.32201 0.71907,-0.7188 v -1.43813 c 0,-1.18904 -0.96762,-2.15692 -2.15693,-2.15692 -1.18931,0 -2.15692,0.96788 -2.15692,2.15692 v 1.43813 c 0,0.39679 0.32201,0.7188 0.71906,0.7188 h 0.7188 v 1.43812 h -4.31385 v -1.43812 h 0.71906 c 0.39679,0 0.71907,-0.32201 0.71907,-0.7188 v -1.43813 c 0,-1.18904 -0.96788,-2.15692 -2.15693,-2.15692 -1.18931,0 -2.15692,0.96788 -2.15692,2.15692 v 1.43813 c 0,0.39679 0.32201,0.7188 0.7188,0.7188 h 0.71906 v 1.43812 H 89.9319 v -1.43812 h 0.71907 c 0.39679,0 0.7188,-0.32201 0.7188,-0.7188 v -1.43813 c 0,-1.18904 -0.96762,-2.15692 -2.15693,-2.15692 -1.18904,0 -2.15692,0.96788 -2.15692,2.15692 v 1.43813 c 0,0.39679 0.32227,0.7188 0.71906,0.7188 h 0.71906 v 1.43812 h -0.71906 c -1.18931,0 -2.15692,0.96762 -2.15692,2.15693 v 0.7188 H 84.1802 v -2.15693 c 0,-0.39679 -0.32228,-0.7188 -0.71907,-0.7188 -0.39679,0 -0.71906,0.32201 -0.71906,0.7188 v 5.75197 c 0,0.39679 0.32227,0.7188 0.71906,0.7188 0.39679,0 0.71907,-0.32201 0.71907,-0.7188 v -2.15692 h 1.43786 v 5.75171 h -0.71907 c -1.18904,0 -2.15692,0.96761 -2.15692,2.15692 v 2.87599 c 0,1.18904 0.96788,2.15692 2.15692,2.15692 h 0.85124 c 0.29779,0.83544 1.08873,1.43786 2.02475,1.43786 h 20.13138 c 0.93601,0 1.72696,-0.60242 2.02448,-1.43786 h 1.5703 v 0.7188 c 0,0.39705 0.32201,0.71906 0.71906,0.71906 h 2.87573 c 0.39705,0 0.71906,-0.32201 0.71906,-0.71906 v -7.18957 c 0,-0.39705 -0.32201,-0.71906 -0.71906,-0.71906 z m -9.3465,-13.66061 c 0,-0.39547 0.32201,-0.71879 0.7188,-0.71879 0.39705,0 0.71906,0.32332 0.71906,0.71879 v 0.71907 h -1.43786 z m -5.75197,0 c 0,-0.39547 0.32228,-0.71879 0.71906,-0.71879 0.39679,0 0.71907,0.32332 0.71907,0.71879 v 0.71907 h -1.43813 z m -5.75171,0 c 0,-0.39547 0.32201,-0.71879 0.71906,-0.71879 0.39679,0 0.7188,0.32332 0.7188,0.71879 v 0.71907 h -1.43786 z m -5.75171,0 c 0,-0.39547 0.32202,-0.71879 0.7188,-0.71879 0.39705,0 0.71906,0.32332 0.71906,0.71879 v 0.71907 h -1.43786 z m -1.43812,5.75198 c 0,-0.39547 0.32227,-0.71907 0.71906,-0.71907 h 20.13138 c 0.39678,0 0.7188,0.3236 0.7188,0.71907 v 2.15692 H 87.05592 Z m -2.87572,12.94154 v -2.87599 c 0,-0.39547 0.32201,-0.71906 0.71879,-0.71906 h 0.71907 v 4.31385 h -0.71907 c -0.39678,0 -0.71879,-0.32333 -0.71879,-0.7188 z m 23.72616,2.15692 H 87.77498 c -0.39679,0 -0.71906,-0.32359 -0.71906,-0.71906 v -10.78462 h 21.56924 v 4.31385 h -3.59479 c -0.39679,0 -0.71906,-0.32359 -0.71906,-0.71906 v -1.6177 c 0,-0.39679 -0.32201,-0.7188 -0.7188,-0.7188 -0.39705,0 -0.71906,0.32201 -0.71906,0.7188 v 1.6177 c 0,0.25329 0.0519,0.49341 0.13217,0.71906 h -2.2891 c -0.39678,0 -0.71906,-0.32359 -0.71906,-0.71906 v -1.6177 c 0,-0.39679 -0.32201,-0.7188 -0.7188,-0.7188 -0.39705,0 -0.71906,0.32201 -0.71906,0.7188 v 1.6177 c 0,0.25329 0.0519,0.49341 0.13217,0.71906 h -2.2891 c -0.39678,0 -0.71906,-0.32359 -0.71906,-0.71906 v -1.6177 c 0,-0.39679 -0.32201,-0.7188 -0.7188,-0.7188 -0.39705,0 -0.71906,0.32201 -0.71906,0.7188 v 1.6177 c 0,0.25329 0.0519,0.49341 0.13218,0.71906 h -2.2891 c -0.39679,0 -0.71906,-0.32359 -0.71906,-0.71906 v -1.6177 c 0,-0.39679 -0.32201,-0.7188 -0.7188,-0.7188 -0.39706,0 -0.71907,0.32201 -0.71907,0.7188 v 1.6177 c 0,1.18931 0.96788,2.15692 2.15693,2.15692 h 16.53633 v 5.03291 c 0,0.39547 -0.32202,0.71906 -0.7188,0.71906 z m 2.15692,-1.43812 v -2.87573 h 1.43786 v 2.87573 z m 4.31385,1.43812 H 112.939 v -5.75197 h 1.43813 z m 0,0"
       id="path4137" /></g></svg>
