<?xml version="1.0" encoding="UTF-8" standalone="no"?>
<!-- Created with Inkscape (http://www.inkscape.org/) -->

<svg
   width="105.83334mm"
   height="66.145844mm"
   viewBox="0 0 105.83334 66.145844"
   version="1.1"
   id="svg5"
   xml:space="preserve"
   inkscape:version="1.2 (dc2aedaf03, 2022-05-15)"
   sodipodi:docname="exhaust-icon-platinum.svg"
   xmlns:inkscape="http://www.inkscape.org/namespaces/inkscape"
   xmlns:sodipodi="http://sodipodi.sourceforge.net/DTD/sodipodi-0.dtd"
   xmlns="http://www.w3.org/2000/svg"
   xmlns:svg="http://www.w3.org/2000/svg"><sodipodi:namedview
     id="namedview7"
     pagecolor="#ffffff"
     bordercolor="#000000"
     borderopacity="0.25"
     inkscape:showpageshadow="2"
     inkscape:pageopacity="0.0"
     inkscape:pagecheckerboard="0"
     inkscape:deskcolor="#d1d1d1"
     inkscape:document-units="mm"
     showgrid="false"
     inkscape:zoom="1.1441657"
     inkscape:cx="275.74677"
     inkscape:cy="72.97894"
     inkscape:window-width="1920"
     inkscape:window-height="1001"
     inkscape:window-x="-9"
     inkscape:window-y="-9"
     inkscape:window-maximized="1"
     inkscape:current-layer="layer1" /><defs
     id="defs2" /><g
     inkscape:label="Layer 1"
     inkscape:groupmode="layer"
     id="layer1"
     transform="translate(-46.361858,-197.70306)"><rect
       style="fill:#fafafa;fill-opacity:1;stroke-width:0.27226"
       id="rect306"
       width="105.83334"
       height="66.145836"
       x="46.361858"
       y="197.70306" /><g
       style="fill:#000000"
       id="g1894"
       transform="matrix(0.6614597,0,0,0.6614597,82.742038,214.23949)"><rect
         width="24.042"
         height="12.728"
         x="16.979"
         y="9.6359997"
         fill="none"
         stroke="#000000"
         stroke-linejoin="round"
         stroke-miterlimit="10"
         stroke-width="2"
         transform="rotate(-45.001,29,16)"
         id="rect1879" /><path
         fill="none"
         stroke="#000000"
         stroke-linejoin="round"
         stroke-miterlimit="10"
         stroke-width="2"
         d="m 19,23 -5.828,5.828 C 12.421,29.579 12,30.596 12,31.657 v 6.686 c 0,1.061 -0.421,2.078 -1.172,2.828 L 6,46 9,49 14.828,43.172 C 15.578,42.422 16,41.404 16,40.344 v -6.686 c 0,-1.061 0.421,-2.078 1.172,-2.828 L 22,26"
         id="path1881" /><polyline
         fill="none"
         stroke="#000000"
         stroke-linejoin="round"
         stroke-miterlimit="10"
         stroke-width="2"
         points="36,6 41,1 44,4 39,9"
         id="polyline1883" /></g></g></svg>
