<?xml version="1.0" encoding="UTF-8" standalone="no"?>
<!-- Created with Inkscape (http://www.inkscape.org/) -->

<svg
   width="105.83334mm"
   height="66.145844mm"
   viewBox="0 0 105.83334 66.145844"
   version="1.1"
   id="svg5"
   xml:space="preserve"
   inkscape:version="1.2 (dc2aedaf03, 2022-05-15)"
   sodipodi:docname="oil-jug-icon-platinum.svg"
   xmlns:inkscape="http://www.inkscape.org/namespaces/inkscape"
   xmlns:sodipodi="http://sodipodi.sourceforge.net/DTD/sodipodi-0.dtd"
   xmlns="http://www.w3.org/2000/svg"
   xmlns:svg="http://www.w3.org/2000/svg"><sodipodi:namedview
     id="namedview7"
     pagecolor="#ffffff"
     bordercolor="#000000"
     borderopacity="0.25"
     inkscape:showpageshadow="2"
     inkscape:pageopacity="0.0"
     inkscape:pagecheckerboard="0"
     inkscape:deskcolor="#d1d1d1"
     inkscape:document-units="mm"
     showgrid="false"
     inkscape:zoom="1.5513507"
     inkscape:cx="189.18997"
     inkscape:cy="86.698643"
     inkscape:window-width="1920"
     inkscape:window-height="1001"
     inkscape:window-x="-9"
     inkscape:window-y="-9"
     inkscape:window-maximized="1"
     inkscape:current-layer="layer1" /><defs
     id="defs2" /><g
     inkscape:label="Layer 1"
     inkscape:groupmode="layer"
     id="layer1"
     transform="translate(-46.361858,-197.70306)"><rect
       style="fill:#fafafa;fill-opacity:1;stroke-width:0.27226"
       id="rect306"
       width="105.83334"
       height="66.145836"
       x="46.361858"
       y="197.70306" /><path
       style="fill:#000000;fill-opacity:1;fill-rule:nonzero;stroke:none;stroke-width:0.0552172"
       d="m 95.252318,221.57304 v 2.30079 h 2.30057 v 2.30079 h -4.92275 l -0.88735,-2.66488 c -0.15681,-0.46978 -0.59661,-0.78663 -1.09205,-0.7862 h -3.45108 c -0.63522,0 -1.15029,0.51507 -1.15029,1.15029 v 4.60136 c 0,0.43592 0.24611,0.83409 0.63586,1.02907 l 3.96551,1.98178 v 7.34239 c 2e-4,0.63542 0.51507,1.15028 1.1505,1.1505 h 11.503512 c 0.44864,2.1e-4 0.8563,-0.26034 1.04481,-0.66735 l 6.59436,-14.28746 h 1.56377 v -2.30058 h -3.45107 c -0.30521,0 -0.59769,0.12122 -0.81338,0.33691 l -3.86219,3.86219 c -0.16781,-0.44929 -0.5966,-0.74737 -1.0763,-0.74802 h -3.451072 v -2.30079 h 2.300782 v -2.30079 z m -6.90216,3.45108 h 1.47167 l 0.82891,2.48952 v 1.402 l -2.30058,-1.15029 z m 19.093082,2.08962 -4.87551,10.5644 h -9.616202 v -9.20295 h 9.202932 v 1.15051 c 2.1e-4,0.46503 0.2804,0.88433 0.71006,1.06228 0.42987,0.17816 0.92446,0.0798 1.2536,-0.24912 z m 3.33891,2.51196 c 0,0 -1.72553,3.07253 -1.72553,4.02611 0,0.95379 0.77174,1.72554 1.72553,1.72554 0.95358,0 1.72554,-0.77175 1.72554,-1.72554 0,-0.95358 -1.72554,-4.02611 -1.72554,-4.02611 z m 0,0"
       id="path2279" /></g></svg>
