<?xml version="1.0" encoding="UTF-8" standalone="no"?>
<!-- Created with Inkscape (http://www.inkscape.org/) -->

<svg
   width="105.83334mm"
   height="66.145844mm"
   viewBox="0 0 105.83334 66.145844"
   version="1.1"
   id="svg5"
   xml:space="preserve"
   inkscape:version="1.2 (dc2aedaf03, 2022-05-15)"
   sodipodi:docname="seat-icon-platinum.svg"
   xmlns:inkscape="http://www.inkscape.org/namespaces/inkscape"
   xmlns:sodipodi="http://sodipodi.sourceforge.net/DTD/sodipodi-0.dtd"
   xmlns="http://www.w3.org/2000/svg"
   xmlns:svg="http://www.w3.org/2000/svg"><sodipodi:namedview
     id="namedview7"
     pagecolor="#ffffff"
     bordercolor="#000000"
     borderopacity="0.25"
     inkscape:showpageshadow="2"
     inkscape:pageopacity="0.0"
     inkscape:pagecheckerboard="0"
     inkscape:deskcolor="#d1d1d1"
     inkscape:document-units="mm"
     showgrid="false"
     inkscape:zoom="1.1441657"
     inkscape:cx="276.62077"
     inkscape:cy="72.97894"
     inkscape:window-width="1920"
     inkscape:window-height="1001"
     inkscape:window-x="-9"
     inkscape:window-y="-9"
     inkscape:window-maximized="1"
     inkscape:current-layer="layer1" /><defs
     id="defs2" /><g
     inkscape:label="Layer 1"
     inkscape:groupmode="layer"
     id="layer1"
     transform="translate(-46.361858,-197.70306)"><rect
       style="fill:#fafafa;fill-opacity:1;stroke-width:0.27226"
       id="rect306"
       width="105.83334"
       height="66.145836"
       x="46.361858"
       y="197.70306" /><g
       style="fill:#000000"
       id="g1889"
       transform="matrix(0.62997572,0,0,0.62997572,83.529655,215.02659)"><path
         d="m 19.441406,1 c -1.287635,0 -2.43876,0.8304098 -2.845703,2.0527344 l -0.667969,2 C 15.290522,6.9673297 16.757399,9 18.775391,9 H 20 v 3 h -2.519531 c -2.684495,0 -5.058448,1.775887 -5.855469,4.359375 v 0.002 l -2.3203125,7.533203 c -1.1203554,3.637884 -1.5425796,5.631911 -1.1621094,9.496094 l 0.2617188,2.660156 C 8.1542036,36.021003 7.9027146,36 7.6484375,36 5.4671308,36 3.7349509,37.933275 4.0332031,40.085938 l 0.4257813,3.05664 c 0.1613452,1.158625 0.8845447,2.165146 1.9277344,2.701172 l 5.3476562,2.748047 C 12.255117,48.859725 12.833043,49 13.419922,49 h 23.160156 c 0.586879,0 1.164957,-0.139645 1.685547,-0.408203 l 5.345703,-2.748047 c 1.04319,-0.536026 1.768342,-1.542547 1.929688,-2.701172 l 0.423828,-3.05664 C 46.264507,37.933059 44.53287,36 42.351562,36 c -0.254277,0 -0.505707,0.02104 -0.755859,0.05078 l 0.259766,-2.660156 c 0.38047,-3.864183 -0.04175,-5.85821 -1.16211,-9.496094 L 38.373047,16.361328 C 37.57811,13.776891 35.202073,12 32.517578,12 H 30 V 9 h 1.224609 c 2.017992,0 3.484869,-2.0326703 2.847657,-3.9472656 l -0.667969,-2 v -0.00195 C 32.997124,1.8300059 31.84568,1 30.558594,1 Z m 0,2 h 11.117188 c 0.434364,0 0.81193,0.2712213 0.949218,0.6835938 l 0.666016,2 C 32.398615,6.3589983 31.936618,7 31.224609,7 H 18.775391 C 18.063382,7 17.601385,6.3589984 17.826172,5.6835938 l 0.666016,-2 C 18.629245,3.2719184 19.007042,3 19.441406,3 Z M 22,9 h 6 v 3 h -6 z m -4.519531,5 h 15.037109 c 1.805505,0 3.400297,1.183656 3.94336,2.949219 l 2.320312,7.533203 c 1.105645,3.590116 1.445514,5.041073 1.083984,8.71289 l -0.339843,3.462891 C 39.011374,36.912017 38.531035,37.23601 38.099609,37.625 l -0.498047,0.447266 c -0.402186,0.36071 -0.948035,0.506886 -1.476562,0.388672 h -0.002 c -2.323172,-0.51846 -6.46275,-1.544922 -11.121094,-1.544922 -4.658491,0 -8.800601,1.027614 -11.123047,1.544922 -0.53075,0.118571 -1.078196,-0.02649 -1.478515,-0.386719 l -0.5,-0.451172 v 0.002 C 11.46796,37.235957 10.987158,36.912205 10.472609,36.65825 l -0.339844,-3.462891 c -0.3615288,-3.671817 -0.02166,-5.122774 1.083985,-8.71289 l 2.320312,-7.533203 C 14.082088,15.18266 15.674964,14 17.480469,14 Z m 7.527343,3 c -2.670587,-0.0031 -5.400543,0.544212 -6.800781,2.369141 -0.292338,0.380916 -0.401193,0.737071 -0.539062,1.199218 -0.13787,0.462148 -0.26358,1.01098 -0.384766,1.636719 -0.242371,1.251477 -0.462893,2.806839 -0.652344,4.462891 C 16.251958,29.980072 16,33.666737 16,36 h 2 c 0,-2.185737 0.248042,-5.859619 0.619141,-9.103516 0.185549,-1.621948 0.402527,-3.143602 0.628906,-4.3125 0.113189,-0.584448 0.229666,-1.080584 0.337891,-1.443359 0.108223,-0.362775 0.249369,-0.609854 0.207031,-0.554687 0.630762,-0.822072 2.894478,-1.58861 5.21289,-1.585938 2.318413,0.0027 4.581072,0.77762 5.201172,1.585938 -0.04234,-0.05517 0.09881,0.191912 0.207031,0.554687 0.108226,0.362775 0.224702,0.858911 0.337891,1.443359 0.226379,1.168898 0.443357,2.690552 0.628906,4.3125 C 31.751958,30.140381 32,33.814263 32,36 h 2 C 34,33.666737 33.748042,29.980072 33.369141,26.667969 33.17969,25.011917 32.959168,23.456555 32.716797,22.205078 32.595611,21.579339 32.469901,21.030507 32.332031,20.568359 32.194162,20.106212 32.085307,19.750057 31.792969,19.369141 30.400069,17.553458 27.6784,17.003078 25.007812,17 Z M 7.6484375,38 c 1.0818355,0 2.1216686,0.398336 2.9140625,1.111328 h 0.002 l 0.498047,0.449219 c 0.544717,0.49016 1.227287,0.725423 1.9375,0.828125 v 6.509766 c -0.116802,-0.03096 -0.241841,-0.02855 -0.349609,-0.08398 h -0.002 L 7.3007812,44.066406 C 6.8259709,43.822433 6.5101079,43.374561 6.4394531,42.867188 L 6.0136719,39.810547 C 5.8799241,38.84521 6.6217442,38 7.6484375,38 Z m 34.7031245,0 c 1.026694,0 1.76715,0.845424 1.632813,1.810547 l -0.425781,3.056641 c -0.07066,0.507373 -0.386518,0.955245 -0.861328,1.199218 l -5.347657,2.748047 h -0.002 c -0.106619,0.055 -0.231486,0.05311 -0.347656,0.08398 v -6.511719 c 0.710597,-0.102606 1.392207,-0.337113 1.9375,-0.826172 l 0.501953,-0.449219 C 40.229365,38.39916 41.269728,38 42.351562,38 Z m -17.349609,0.916016 c 4.037337,0 7.590346,0.812202 9.998047,1.355468 V 47 H 15 v -6.728516 c 2.408247,-0.542713 5.96462,-1.355468 10.001953,-1.355468 z"
         id="path1880" /></g></g></svg>
