<?xml version="1.0" encoding="UTF-8" standalone="no"?>
<!-- Created with Inkscape (http://www.inkscape.org/) -->

<svg
   width="105.83334mm"
   height="66.145844mm"
   viewBox="0 0 105.83334 66.145844"
   version="1.1"
   id="svg5"
   xml:space="preserve"
   inkscape:version="1.2 (dc2aedaf03, 2022-05-15)"
   sodipodi:docname="spoiler-icon-platinum.svg"
   xmlns:inkscape="http://www.inkscape.org/namespaces/inkscape"
   xmlns:sodipodi="http://sodipodi.sourceforge.net/DTD/sodipodi-0.dtd"
   xmlns="http://www.w3.org/2000/svg"
   xmlns:svg="http://www.w3.org/2000/svg"><sodipodi:namedview
     id="namedview7"
     pagecolor="#ffffff"
     bordercolor="#000000"
     borderopacity="0.25"
     inkscape:showpageshadow="2"
     inkscape:pageopacity="0.0"
     inkscape:pagecheckerboard="0"
     inkscape:deskcolor="#d1d1d1"
     inkscape:document-units="mm"
     showgrid="false"
     inkscape:zoom="1.1441657"
     inkscape:cx="275.74677"
     inkscape:cy="72.97894"
     inkscape:window-width="1920"
     inkscape:window-height="1001"
     inkscape:window-x="-9"
     inkscape:window-y="-9"
     inkscape:window-maximized="1"
     inkscape:current-layer="layer1" /><defs
     id="defs2" /><g
     inkscape:label="Layer 1"
     inkscape:groupmode="layer"
     id="layer1"
     transform="translate(-46.361858,-197.70306)"><rect
       style="fill:#fafafa;fill-opacity:1;stroke-width:0.27226"
       id="rect306"
       width="105.83334"
       height="66.145836"
       x="46.361858"
       y="197.70306" /><g
       style="fill:#000000"
       id="g12945"
       transform="matrix(0.5905878,0,0,0.5905878,80.379721,211.87717)"><path
         d="m 5,20 a 1,1 0 0 0 -1,1 v 16 a 1,1 0 0 0 1,1 h 4 a 1,1 0 0 0 1,-1 v -1 h 4 v 7 a 1,1 0 0 0 1,1 h 4 a 1,1 0 0 0 1,-1 v -7 h 24 v 7 a 1,1 0 0 0 1,1 h 4 a 1,1 0 0 0 1,-1 v -7 h 4 v 1 a 1,1 0 0 0 1,1 h 4 a 1,1 0 0 0 1,-1 V 21 a 1,1 0 0 0 -1,-1 h -4 a 1,1 0 0 0 -1,1 v 1 H 10 V 21 A 1,1 0 0 0 9,20 Z m 1,2 h 2 v 1 12 1 H 6 Z m 50,0 h 2 V 36 H 56 V 35 23 Z m -46,2 h 44 v 6 H 10 Z m 0,8 h 44 v 2 H 49 45 19 15 10 Z m 6,4 h 2 v 6 h -2 z m 30,0 h 2 v 6 h -2 z"
         id="path12936" /></g></g></svg>
