<?xml version="1.0" encoding="UTF-8" standalone="no"?>
<!-- Created with Inkscape (http://www.inkscape.org/) -->

<svg
   width="105.83334mm"
   height="66.145844mm"
   viewBox="0 0 105.83334 66.145844"
   version="1.1"
   id="svg5"
   xml:space="preserve"
   inkscape:version="1.2 (dc2aedaf03, 2022-05-15)"
   sodipodi:docname="tire-icon-platinum.svg"
   xmlns:inkscape="http://www.inkscape.org/namespaces/inkscape"
   xmlns:sodipodi="http://sodipodi.sourceforge.net/DTD/sodipodi-0.dtd"
   xmlns="http://www.w3.org/2000/svg"
   xmlns:svg="http://www.w3.org/2000/svg"><sodipodi:namedview
     id="namedview7"
     pagecolor="#ffffff"
     bordercolor="#000000"
     borderopacity="0.25"
     inkscape:showpageshadow="2"
     inkscape:pageopacity="0.0"
     inkscape:pagecheckerboard="0"
     inkscape:deskcolor="#d1d1d1"
     inkscape:document-units="mm"
     showgrid="false"
     inkscape:zoom="1.1441657"
     inkscape:cx="275.74677"
     inkscape:cy="55.498954"
     inkscape:window-width="1920"
     inkscape:window-height="1001"
     inkscape:window-x="-9"
     inkscape:window-y="-9"
     inkscape:window-maximized="1"
     inkscape:current-layer="layer1" /><defs
     id="defs2" /><g
     inkscape:label="Layer 1"
     inkscape:groupmode="layer"
     id="layer1"
     transform="translate(-46.361858,-197.70306)"><rect
       style="fill:#fafafa;fill-opacity:1;stroke-width:0.27226"
       id="rect306"
       width="105.83334"
       height="66.145836"
       x="46.361858"
       y="197.70306" /><g
       style="fill:#000000"
       id="g15867"
       transform="matrix(0.7349537,0,0,0.7349537,81.639641,213.13709)"><path
         d="M 18,4 C 14.386325,4 11.333276,6.5450164 9.2714844,10.177734 7.2096932,13.810453 6,18.661442 6,24 6,29.338558 7.2096932,34.189547 9.2714844,37.822266 11.333276,41.454984 14.386325,44 18,44 h 12 c 3.613649,0 6.66672,-2.545044 8.728516,-6.177734 C 40.790311,34.189575 42,29.338686 42,24 42,18.661314 40.790311,13.810425 38.728516,10.177734 36.66672,6.545044 33.613649,4 30,4 Z m 0,3 h 5.634766 C 22.751801,7.9106679 21.95325,8.9765282 21.271484,10.177734 19.209689,13.810425 18,18.661314 18,24 18,29.338686 19.209689,34.189575 21.271484,37.822266 21.95325,39.023472 22.751801,40.089332 23.634766,41 H 18 C 15.814675,41 13.619318,39.404828 11.880859,36.341797 10.142401,33.278765 9,28.878442 9,24 9,19.121558 10.142401,14.721235 11.880859,11.658203 13.619318,8.5951716 15.814675,7 18,7 Z m 12,0 c 2.185344,0 4.380687,1.5952109 6.119141,4.658203 C 37.857594,14.721195 39,19.121418 39,24 39,28.878582 37.857594,33.278805 36.119141,36.341797 34.380687,39.404789 32.185344,41 30,41 27.814656,41 25.619313,39.404789 23.880859,36.341797 22.142406,33.278805 21,28.878582 21,24 21,19.121418 22.142406,14.721195 23.880859,11.658203 25.619313,8.5952109 27.814656,7 30,7 Z m 0,7 c -1.03869,0 -1.981944,0.521953 -2.623047,1.203125 -0.641103,0.681172 -1.072264,1.51433 -1.410156,2.4375 C 25.291013,19.486965 25,21.737745 25,24 c 0,2.262255 0.291013,4.513035 0.966797,6.359375 0.337892,0.92317 0.769053,1.756328 1.410156,2.4375 C 28.018056,33.478047 28.96131,34 30,34 c 1.03869,0 1.981944,-0.521953 2.623047,-1.203125 0.641103,-0.681172 1.072264,-1.51433 1.410156,-2.4375 C 34.708987,28.513035 35,26.262255 35,24 35,21.737745 34.708987,19.486965 34.033203,17.640625 33.695311,16.717455 33.26415,15.884297 32.623047,15.203125 31.981944,14.521953 31.03869,14 30,14 Z m 0,3 c 0.127976,0 0.205557,0.0093 0.439453,0.257812 0.233897,0.248516 0.531903,0.743483 0.777344,1.414063 C 31.707679,20.013035 32,22.012255 32,24 c 0,1.987745 -0.292321,3.986965 -0.783203,5.328125 -0.245441,0.67058 -0.543447,1.165547 -0.777344,1.414063 C 30.205557,30.990703 30.127976,31 30,31 29.872024,31 29.794443,30.990703 29.560547,30.742188 29.32665,30.493672 29.028644,29.998705 28.783203,29.328125 28.292321,27.986965 28,25.987745 28,24 c 0,-1.987745 0.292321,-3.986965 0.783203,-5.328125 0.245441,-0.67058 0.543447,-1.165547 0.777344,-1.414063 C 29.794443,17.009297 29.872024,17 30,17 Z"
         id="path15858" /></g></g></svg>
