<?xml version="1.0" encoding="UTF-8" standalone="no"?>
<!-- Created with Inkscape (http://www.inkscape.org/) -->

<svg
   width="105.83334mm"
   height="66.145844mm"
   viewBox="0 0 105.83334 66.145844"
   version="1.1"
   id="svg5"
   xml:space="preserve"
   inkscape:version="1.2 (dc2aedaf03, 2022-05-15)"
   sodipodi:docname="wrench-icon-platinum.svg"
   xmlns:inkscape="http://www.inkscape.org/namespaces/inkscape"
   xmlns:sodipodi="http://sodipodi.sourceforge.net/DTD/sodipodi-0.dtd"
   xmlns="http://www.w3.org/2000/svg"
   xmlns:svg="http://www.w3.org/2000/svg"><sodipodi:namedview
     id="namedview7"
     pagecolor="#ffffff"
     bordercolor="#000000"
     borderopacity="0.25"
     inkscape:showpageshadow="2"
     inkscape:pageopacity="0.0"
     inkscape:pagecheckerboard="0"
     inkscape:deskcolor="#d1d1d1"
     inkscape:document-units="mm"
     showgrid="false"
     inkscape:zoom="1.1441657"
     inkscape:cx="278.36877"
     inkscape:cy="72.97894"
     inkscape:window-width="1920"
     inkscape:window-height="1001"
     inkscape:window-x="-9"
     inkscape:window-y="-9"
     inkscape:window-maximized="1"
     inkscape:current-layer="layer1" /><defs
     id="defs2" /><g
     inkscape:label="Layer 1"
     inkscape:groupmode="layer"
     id="layer1"
     transform="translate(-46.361858,-197.70306)"><rect
       style="fill:#fafafa;fill-opacity:1;stroke-width:0.27226"
       id="rect306"
       width="105.83334"
       height="66.145836"
       x="46.361858"
       y="197.70306" /><g
       style="fill:#000000"
       id="g1888"
       transform="matrix(0.56294326,0,0,0.56294326,85.48642,216.42093)"><path
         d="m 47.41,10.25 -0.53,-1.56 -1.13,1.15 -7,6.97 -3.97,-1.59 -1.59,-3.97 6.97,-7 1.15,-1.13 -1.56,-0.53 C 38.57,2.21 37.32,2 36,2 29.38,2 24,7.38 24,14 c 0,1.52 0.33,2.95 0.84,4.28 L 11.92,31.2 C 11.3,31.07 10.66,31 10,31 c -4.96,0 -9,4.04 -9,9 0,0.79 0.1,1.56 0.29,2.29 0.19,0.71 0.47,1.39 0.81,2.03 l 1.5,-1.5 3.71,-3.71 2.87,0.71 0.71,2.87 -3.71,3.71 -1.5,1.5 C 6.32,48.24 7,48.52 7.71,48.71 8.44,48.9 9.21,49 10,49 c 4.96,0 9,-4.04 9,-9 0,-0.66 -0.07,-1.3 -0.2,-1.92 L 31.72,25.16 C 33.05,25.67 34.48,26 36,26 42.62,26 48,20.62 48,14 48,12.68 47.79,11.43 47.41,10.25 Z M 36,24 c -1.47,0 -2.86,-0.33 -4.12,-0.91 L 31.25,22.81 18.06,36 16.54,37.52 c 0.29,0.73 0.45,1.53 0.45,2.37 C 17,39.93 17,39.96 17,40 17,43.86 13.86,47 10,47 9.81,47 9.63,46.99 9.45,46.97 L 13.11,43.31 11.82,38.18 6.69,36.89 3.03,40.55 C 3.01,40.37 3,40.19 3,40 c 0,-3.86 3.14,-7 7,-7 0.04,0 0.07,0 0.11,0.01 0.84,0 1.64,0.16 2.37,0.45 L 14,31.94 27.19,18.75 26.91,18.12 C 26.33,16.86 26,15.47 26,14 26,8.46 30.46,4 36,4 c 0.48,0 0.91,0.15 1.38,0.22 l -6.1,6.06 -0.47,0.47 2.25,5.63 0.16,0.4 0.4,0.16 5.63,2.25 0.47,-0.47 6.06,-6.1 C 45.85,13.09 46,13.52 46,14 46,19.54 41.54,24 36,24 Z"
         id="path1879" /></g></g></svg>
