<?xml version="1.0" encoding="UTF-8" standalone="no"?>
<!-- Created with Inkscape (http://www.inkscape.org/) -->

<svg
   width="6.6145835mm"
   height="6.3837781mm"
   viewBox="0 0 6.6145831 6.3837779"
   version="1.1"
   id="svg5"
   xml:space="preserve"
   inkscape:version="1.2 (dc2aedaf03, 2022-05-15)"
   sodipodi:docname="about-icon.svg"
   xmlns:inkscape="http://www.inkscape.org/namespaces/inkscape"
   xmlns:sodipodi="http://sodipodi.sourceforge.net/DTD/sodipodi-0.dtd"
   xmlns="http://www.w3.org/2000/svg"
   xmlns:svg="http://www.w3.org/2000/svg"><sodipodi:namedview
     id="namedview7"
     pagecolor="#ffffff"
     bordercolor="#000000"
     borderopacity="0.25"
     inkscape:showpageshadow="2"
     inkscape:pageopacity="0.0"
     inkscape:pagecheckerboard="0"
     inkscape:deskcolor="#d1d1d1"
     inkscape:document-units="mm"
     showgrid="false"
     inkscape:zoom="17.445914"
     inkscape:cx="10.346262"
     inkscape:cy="17.339304"
     inkscape:window-width="1920"
     inkscape:window-height="1001"
     inkscape:window-x="-9"
     inkscape:window-y="-9"
     inkscape:window-maximized="1"
     inkscape:current-layer="layer1" /><defs
     id="defs2" /><g
     inkscape:label="Layer 1"
     inkscape:groupmode="layer"
     id="layer1"
     transform="translate(-66.20561,-211.39384)"><g
       style="fill:#000000;fill-opacity:1"
       id="g5617"
       transform="matrix(0.13254018,0,0,0.13254018,66.20561,211.2613)"><path
         d="M 25,1 C 11.222656,1 0,10.878906 0,23.1875 c 0,6.046875 2.773438,11.476563 7.21875,15.5 -0.671875,2.074219 -2.171875,3.710938 -3.6875,4.96875 C 2.714844,44.332031 1.933594,44.910156 1.3125,45.46875 1.003906,45.746094 0.722656,46.027344 0.5,46.375 0.277344,46.722656 0.078125,47.21875 0.21875,47.75 l 0.125,0.40625 0.34375,0.21875 c 1.289063,0.742188 2.894531,0.871094 4.625,0.75 1.730469,-0.121094 3.617188,-0.519531 5.46875,-1.03125 3.59375,-0.992187 6.96875,-2.40625 8.75,-3.1875 1.757813,0.367188 3.523438,0.59375 5.375,0.59375 13.777344,0 25,-9.878906 25,-22.1875 C 49.90625,11.007813 38.78125,1 25,1 Z m 0,2 c 12.820313,0 22.90625,9.214844 22.90625,20.3125 0,11.089844 -10.175781,20.1875 -23,20.1875 -1.828125,0 -3.550781,-0.179687 -5.28125,-0.5625 L 19.28125,42.84375 19,43 c -1.671875,0.738281 -5.207031,2.179688 -8.75,3.15625 C 8.476563,46.644531 6.710938,47.019531 5.1875,47.125 4.167969,47.195313 3.539063,46.953125 2.84375,46.78125 3.339844,46.355469 4.019531,45.847656 4.8125,45.1875 6.554688,43.742188 8.644531,41.730469 9.375,38.75 l 0.15625,-0.625 -0.5,-0.375 C 4.625,34.015625 2,28.875 2,23.1875 2,12.097656 12.175781,3 25,3 Z m -1.1875,9.8125 c -0.300781,0 -0.40625,0.175781 -0.40625,0.375 v 2.625 c 0,0.300781 0.207031,0.375 0.40625,0.375 h 2.375 c 0.300781,0 0.40625,-0.175781 0.40625,-0.375 v -2.625 c 0,-0.300781 -0.207031,-0.375 -0.40625,-0.375 z m 0.09375,7.28125 C 23.605469,20.09375 23.5,20.300781 23.5,20.5 v 13.40625 c 0,0.300781 0.207031,0.40625 0.40625,0.40625 v 0.09375 h 2.28125 c 0.300781,0 0.40625,-0.207031 0.40625,-0.40625 V 20.5 c 0,-0.300781 -0.207031,-0.40625 -0.40625,-0.40625 z"
         id="path5608"
         style="fill:#000000;fill-opacity:1" /></g></g></svg>
