<?xml version="1.0" encoding="UTF-8" standalone="no"?>
<!-- Created with Inkscape (http://www.inkscape.org/) -->

<svg
   width="6.614583mm"
   height="5.3743558mm"
   viewBox="0 0 6.6145827 5.3743559"
   version="1.1"
   id="svg5"
   xml:space="preserve"
   inkscape:version="1.2 (dc2aedaf03, 2022-05-15)"
   sodipodi:docname="car-icon.svg"
   xmlns:inkscape="http://www.inkscape.org/namespaces/inkscape"
   xmlns:sodipodi="http://sodipodi.sourceforge.net/DTD/sodipodi-0.dtd"
   xmlns="http://www.w3.org/2000/svg"
   xmlns:svg="http://www.w3.org/2000/svg"><sodipodi:namedview
     id="namedview7"
     pagecolor="#ffffff"
     bordercolor="#000000"
     borderopacity="0.25"
     inkscape:showpageshadow="2"
     inkscape:pageopacity="0.0"
     inkscape:pagecheckerboard="0"
     inkscape:deskcolor="#d1d1d1"
     inkscape:document-units="mm"
     showgrid="false"
     inkscape:zoom="15.052509"
     inkscape:cx="21.557868"
     inkscape:cy="11.327015"
     inkscape:window-width="1920"
     inkscape:window-height="1001"
     inkscape:window-x="-9"
     inkscape:window-y="-9"
     inkscape:window-maximized="1"
     inkscape:current-layer="layer1" /><defs
     id="defs2" /><g
     inkscape:label="Layer 1"
     inkscape:groupmode="layer"
     id="layer1"
     transform="translate(-66.205609,-213.41269)"><g
       style="fill:#000000;fill-opacity:1"
       id="g7813"
       transform="matrix(0.10335286,0,0,0.10335286,66.205609,212.79258)"><path
         d="M 21.144531,6 C 17.078125,6 13.5,8.746094 12.449219,12.683594 L 10.5,20 H 5 c -1.652344,0 -3,1.347656 -3,3 v 2 c 0,1.652344 1.347656,3 3,3 H 5.472656 C 4.515625,29.84375 4,31.914063 4,34 v 11 c 0,1.628906 0.792969,3.0625 2,3.972656 V 54 c 0,0.730469 0.210938,1.410156 0.554688,2 H 1 c -0.554687,0 -1,0.449219 -1,1 0,0.550781 0.445313,1 1,1 h 62 c 0.554688,0 1,-0.449219 1,-1 0,-0.550781 -0.445312,-1 -1,-1 H 57.441406 C 57.789063,55.410156 58,54.730469 58,54 V 48.972656 C 59.207031,48.0625 60,46.625 60,45 V 34 c 0,-2.085937 -0.515625,-4.15625 -1.472656,-6 H 59 c 1.652344,0 3,-1.347656 3,-3 v -2 c 0,-1.652344 -1.347656,-3 -3,-3 H 53.5 L 51.546875,12.683594 C 50.5,8.746094 46.921875,6 42.855469,6 Z m 0,2 h 21.710938 c 3.164062,0 5.945312,2.136719 6.761719,5.195313 l 2.019531,7.566406 c 0.296875,1.117187 0.800781,2.152344 1.492187,3.082031 l 0.597657,0.792969 -1.75,0.851562 C 51.296875,25.824219 50.535156,26 49.777344,26 H 48.910156 C 48.433594,23.167969 45.96875,21 43,21 c -2.96875,0 -5.429687,2.167969 -5.910156,5 H 14.316406 c -0.761718,0 -1.527343,-0.179687 -2.214843,-0.519531 l -1.796875,-0.886719 0.566406,-0.75 c 0.691406,-0.925781 1.195312,-1.964844 1.492187,-3.082031 l 2.019532,-7.566406 C 15.199219,10.136719 17.980469,8 21.144531,8 Z m 8.773438,4 c -0.554688,0 -1,0.449219 -1,1 0,0.550781 0.445312,1 1,1 h 4.25 c 0.554687,0 1,-0.449219 1,-1 0,-0.550781 -0.445313,-1 -1,-1 z M 5,22 H 9.695313 C 9.5625,22.21875 9.425781,22.433594 9.269531,22.640625 L 6.75,26 H 5 C 4.449219,26 4,25.550781 4,25 v -2 c 0,-0.550781 0.449219,-1 1,-1 z m 49.308594,0 H 59 c 0.550781,0 1,0.449219 1,1 v 2 c 0,0.550781 -0.449219,1 -1,1 H 57.25 L 54.730469,22.640625 C 54.574219,22.433594 54.4375,22.21875 54.308594,22 Z M 43,23 c 1.859375,0 3.410156,1.28125 3.859375,3 h -7.71875 c 0.449219,-1.71875 2,-3 3.859375,-3 z M 9.085938,26.21875 11.21875,27.277344 C 12.175781,27.75 13.25,28 14.316406,28 h 35.460938 c 1.0625,0 2.125,-0.246094 3.078125,-0.714844 l 2.09375,-1.019531 0.851562,1.136719 c 1.054688,1.40625 1.757813,3.0625 2.046875,4.796875 -0.05859,0.0039 -0.117187,-0.0039 -0.175781,0.0078 L 49.34375,33.59375 C 47.40625,33.917969 46,35.578125 46,37.542969 V 38 c 0,1.101563 0.898438,2 2,2 h 10 v 5 c 0,1.652344 -1.347656,3 -3,3 H 9 C 7.347656,48 6,46.652344 6,45 v -5 h 10 c 1.101563,0 2,-0.898437 2,-2 v -0.457031 c 0,-1.964844 -1.40625,-3.625 -3.34375,-3.949219 L 6.328125,32.207031 c -0.058594,-0.01172 -0.117187,-0.0039 -0.175781,-0.0078 0.289062,-1.734375 0.992187,-3.390625 2.046875,-4.796875 z M 6,34.179688 14.328125,35.566406 C 15.296875,35.730469 16,36.5625 16,37.542969 V 38 H 6 Z m 52,0.0039 V 38 H 48 v -0.457031 c 0,-0.980469 0.703125,-1.8125 1.671875,-1.976563 z M 22,36 c -0.554687,0 -1,0.449219 -1,1 v 2 c 0,0.550781 0.445313,1 1,1 0.554688,0 1,-0.449219 1,-1 v -2 c 0,-0.550781 -0.445312,-1 -1,-1 z m 5,0 c -0.554687,0 -1,0.449219 -1,1 v 2 c 0,0.550781 0.445313,1 1,1 0.554688,0 1,-0.449219 1,-1 v -2 c 0,-0.550781 -0.445312,-1 -1,-1 z m 5,0 c -0.554687,0 -1,0.449219 -1,1 v 2 c 0,0.550781 0.445313,1 1,1 0.554688,0 1,-0.449219 1,-1 v -2 c 0,-0.550781 -0.445312,-1 -1,-1 z m 5,0 c -0.554687,0 -1,0.449219 -1,1 v 2 c 0,0.550781 0.445313,1 1,1 0.554688,0 1,-0.449219 1,-1 v -2 c 0,-0.550781 -0.445312,-1 -1,-1 z m 5,0 c -0.554687,0 -1,0.449219 -1,1 v 2 c 0,0.550781 0.445313,1 1,1 0.554688,0 1,-0.449219 1,-1 v -2 c 0,-0.550781 -0.445312,-1 -1,-1 z M 8.917969,42 c -0.554688,0 -1,0.449219 -1,1 0,0.550781 0.445312,1 1,1 h 4.25 c 0.554687,0 1,-0.449219 1,-1 0,-0.550781 -0.445313,-1 -1,-1 z m 8,0 c -0.554688,0 -1,0.449219 -1,1 0,0.550781 0.445312,1 1,1 h 30.25 c 0.554687,0 1,-0.449219 1,-1 0,-0.550781 -0.445313,-1 -1,-1 z m 34,0 c -0.554688,0 -1,0.449219 -1,1 0,0.550781 0.445312,1 1,1 h 4.25 c 0.554687,0 1,-0.449219 1,-1 0,-0.550781 -0.445313,-1 -1,-1 z M 8,50 h 6 v 4 c 0,1.101563 -0.898437,2 -2,2 H 10 C 8.898438,56 8,55.101563 8,54 Z m 8,0 h 32 v 4 c 0,0.730469 0.210938,1.410156 0.558594,2 H 15.441406 C 15.789063,55.410156 16,54.730469 16,54 Z m 34,0 h 6 v 4 c 0,1.101563 -0.898437,2 -2,2 h -2 c -1.101562,0 -2,-0.898437 -2,-2 z"
         id="path7804"
         style="fill:#000000;fill-opacity:1" /></g></g></svg>
