<?xml version="1.0" encoding="UTF-8" standalone="no"?>
<!-- Created with Inkscape (http://www.inkscape.org/) -->

<svg
   width="6.6145835mm"
   height="5.0270853mm"
   viewBox="0 0 6.6145832 5.0270854"
   version="1.1"
   id="svg5"
   xml:space="preserve"
   inkscape:version="1.2 (dc2aedaf03, 2022-05-15)"
   sodipodi:docname="contact-icon.svg"
   xmlns:inkscape="http://www.inkscape.org/namespaces/inkscape"
   xmlns:sodipodi="http://sodipodi.sourceforge.net/DTD/sodipodi-0.dtd"
   xmlns="http://www.w3.org/2000/svg"
   xmlns:svg="http://www.w3.org/2000/svg"><sodipodi:namedview
     id="namedview7"
     pagecolor="#ffffff"
     bordercolor="#000000"
     borderopacity="0.25"
     inkscape:showpageshadow="2"
     inkscape:pageopacity="0.0"
     inkscape:pagecheckerboard="0"
     inkscape:deskcolor="#d1d1d1"
     inkscape:document-units="mm"
     showgrid="false"
     inkscape:zoom="8.0728884"
     inkscape:cx="18.890389"
     inkscape:cy="21.863302"
     inkscape:window-width="1920"
     inkscape:window-height="1001"
     inkscape:window-x="-9"
     inkscape:window-y="-9"
     inkscape:window-maximized="1"
     inkscape:current-layer="layer1" /><defs
     id="defs2" /><g
     inkscape:label="Layer 1"
     inkscape:groupmode="layer"
     id="layer1"
     transform="translate(-66.20561,-214.10723)"><g
       style="fill:#000000;fill-opacity:1"
       id="g20120"
       transform="matrix(0.13229167,0,0,0.13229167,66.20561,213.18119)"><path
         d="M 3,7 C 1.355469,7 0,8.355469 0,10 v 32 c 0,1.644531 1.355469,3 3,3 h 7 v -2 h 2 v 2 h 26 v -2 h 2 v 2 h 7 c 1.644531,0 3,-1.355469 3,-3 V 14 c 0,-1.644531 -1.355469,-3 -3,-3 H 26 V 10 C 26,8.355469 24.644531,7 23,7 Z m 0,2 h 20 c 0.5625,0 1,0.4375 1,1 v 3 h 23 c 0.5625,0 1,0.4375 1,1 v 28 c 0,0.5625 -0.4375,1 -1,1 h -5 v -2 h -6 v 2 H 14 V 41 H 8 v 2 H 3 C 2.4375,43 2,42.5625 2,42 V 10 C 2,9.4375 2.4375,9 3,9 Z m 10.46875,9 c -3.359375,0.0625 -3.765625,2.617188 -3.03125,5.5625 -0.128906,0.08203 -0.335937,0.375 -0.28125,0.84375 0.101563,0.871094 0.4375,1.074219 0.65625,1.09375 0.08203,0.8125 0.597656,1.785156 0.875,1.9375 0,0.578125 0.02344,1.019531 -0.03125,1.65625 C 10.992188,30.949219 6.207031,30.421875 6,34 h 15 c -0.207031,-3.578125 -4.960937,-3.050781 -5.625,-4.90625 -0.05469,-0.636719 -0.03125,-1.078125 -0.03125,-1.65625 0.277344,-0.152344 0.757813,-1.125 0.84375,-1.9375 0.21875,-0.01953 0.554688,-0.222656 0.65625,-1.09375 0.05469,-0.46875 -0.152344,-0.730469 -0.28125,-0.8125 0.351563,-1.105469 1.074219,-4.550781 -1.375,-4.90625 C 14.933594,18.226563 14.308594,18 13.46875,18 Z M 26,22 v 2 h 18 v -2 z m 0,5 v 2 h 18 v -2 z m 0,5 v 2 h 18 v -2 z"
         id="path20111"
         style="fill:#000000;fill-opacity:1" /></g></g></svg>
