<?xml version="1.0" encoding="UTF-8" standalone="no"?>
<!-- Created with Inkscape (http://www.inkscape.org/) -->

<svg
   width="6.6145835mm"
   height="6.3332334mm"
   viewBox="0 0 6.6145832 6.3332334"
   version="1.1"
   id="svg5"
   xml:space="preserve"
   inkscape:version="1.2 (dc2aedaf03, 2022-05-15)"
   sodipodi:docname="home-icon.svg"
   xmlns:inkscape="http://www.inkscape.org/namespaces/inkscape"
   xmlns:sodipodi="http://sodipodi.sourceforge.net/DTD/sodipodi-0.dtd"
   xmlns="http://www.w3.org/2000/svg"
   xmlns:svg="http://www.w3.org/2000/svg"><sodipodi:namedview
     id="namedview7"
     pagecolor="#ffffff"
     bordercolor="#000000"
     borderopacity="0.25"
     inkscape:showpageshadow="2"
     inkscape:pageopacity="0.0"
     inkscape:pagecheckerboard="0"
     inkscape:deskcolor="#d1d1d1"
     inkscape:document-units="mm"
     showgrid="false"
     inkscape:zoom="11.400158"
     inkscape:cx="41.008204"
     inkscape:cy="19.604992"
     inkscape:window-width="1920"
     inkscape:window-height="1001"
     inkscape:window-x="-9"
     inkscape:window-y="-9"
     inkscape:window-maximized="1"
     inkscape:current-layer="layer1" /><defs
     id="defs2" /><g
     inkscape:label="Layer 1"
     inkscape:groupmode="layer"
     id="layer1"
     transform="translate(-66.205609,-211.49493)"><g
       style="fill:#000000;fill-opacity:1"
       id="g4147"
       transform="matrix(0.1378004,0,0,0.1378004,66.067887,211.3497)"><path
         d="M 24.962891,1.0546875 A 1.0001,1.0001 0 0 0 24.384766,1.2636719 L 1.3847656,19.210938 a 1.0005659,1.0005659 0 0 0 1.2304688,1.578124 L 4,19.708984 V 46 a 1.0001,1.0001 0 0 0 1,1 h 13.832031 a 1.0001,1.0001 0 0 0 0.326172,0 h 11.673828 a 1.0001,1.0001 0 0 0 0.326172,0 H 45 a 1.0001,1.0001 0 0 0 1,-1 V 19.708984 l 1.384766,1.080078 a 1.0005657,1.0005657 0 1 0 1.230468,-1.578124 L 41,13.269531 c -7.8e-5,-0.208042 6e-5,-0.448908 0,-0.761719 -1.41e-4,-0.731493 6.2e-5,-1.698068 0,-2.6621089 C 40.999875,7.9176211 41,6 41,6 A 1.0001,1.0001 0 0 0 40,5 h -4 a 1.0001,1.0001 0 0 0 -1,1 c 0,0 6.25e-4,1.1570629 0,2.3144531 -5.4e-5,0.099408 6.3e-5,0.1747622 0,0.2734375 L 25.615234,1.2636719 A 1.0001,1.0001 0 0 0 24.962891,1.0546875 Z M 25,3.3222656 35.378906,11.419922 a 1.0001,1.0001 0 0 0 0.988282,0.140625 c 0,0 0.619121,-0.79868 0.61914,-0.798828 2e-5,-1.49e-4 0.0051,-0.05333 0.0059,-0.06445 0.0015,-0.02226 0.0017,-0.02843 0.002,-0.03516 4.51e-4,-0.01345 0.0018,-0.02009 0.002,-0.02734 2.41e-4,-0.0145 -1.49e-4,-0.02843 0,-0.04687 2.98e-4,-0.03688 -2.42e-4,-0.08823 0,-0.152344 4.84e-4,-0.128229 0.0016,-0.309812 0.002,-0.5273439 C 36.99857,9.4731324 36.999687,8.8954613 37,8.3164062 37.000355,7.6582563 36.999934,7.4454733 37,7 h 2 c 6e-6,0.6422969 -9.2e-5,1.4189176 0,2.8457031 6.3e-5,0.9640839 -1.41e-4,1.9304469 0,2.6621089 7e-5,0.365832 -9.6e-5,0.672112 0,0.890626 9.6e-5,0.218512 9.33e-4,0.282578 0.002,0.371093 a 1.0001,1.0001 0 0 0 0.384766,0.777344 L 44,18.146484 V 45 H 32 V 26 H 18 V 45 H 6 V 18.148438 Z M 20,28 H 30 V 45 H 20 Z m 7,7 a 1,1 0 0 0 -1,1 1,1 0 0 0 1,1 1,1 0 0 0 1,-1 1,1 0 0 0 -1,-1 z"
         id="path4138"
         style="fill:#000000;fill-opacity:1" /></g></g></svg>
