<?xml version="1.0" encoding="UTF-8" standalone="no"?>
<!-- Created with Inkscape (http://www.inkscape.org/) -->

<svg
   width="6.6145849mm"
   height="6.5311885mm"
   viewBox="0 0 6.6145847 6.5311886"
   version="1.1"
   id="svg5"
   xml:space="preserve"
   inkscape:version="1.2 (dc2aedaf03, 2022-05-15)"
   sodipodi:docname="suspension-icon.svg"
   xmlns:inkscape="http://www.inkscape.org/namespaces/inkscape"
   xmlns:sodipodi="http://sodipodi.sourceforge.net/DTD/sodipodi-0.dtd"
   xmlns="http://www.w3.org/2000/svg"
   xmlns:svg="http://www.w3.org/2000/svg"><sodipodi:namedview
     id="namedview7"
     pagecolor="#ffffff"
     bordercolor="#000000"
     borderopacity="0.25"
     inkscape:showpageshadow="2"
     inkscape:pageopacity="0.0"
     inkscape:pagecheckerboard="0"
     inkscape:deskcolor="#d1d1d1"
     inkscape:document-units="mm"
     showgrid="false"
     inkscape:zoom="6.433775"
     inkscape:cx="23.081317"
     inkscape:cy="22.925887"
     inkscape:window-width="1920"
     inkscape:window-height="1001"
     inkscape:window-x="-9"
     inkscape:window-y="-9"
     inkscape:window-maximized="1"
     inkscape:current-layer="layer1" /><defs
     id="defs2" /><g
     inkscape:label="Layer 1"
     inkscape:groupmode="layer"
     id="layer1"
     transform="translate(-62.898319,-207.83343)"><g
       style="fill:#000000;fill-opacity:1"
       id="g6341"
       transform="matrix(0.01338318,0,0,0.01338318,62.779137,207.67346)"><path
         d="m 455.74805,11.962891 a 46.626,46.626 0 0 0 -26.08594,8.636718 L 377.62695,57.5 368.17188,48.166016 a 20.888,20.888 0 0 0 -29.23633,0 20.435,20.435 0 0 0 0,29.080078 L 358.82031,96.875 342.60547,112.88281 319.93555,100.91016 a 26.883,26.883 0 0 0 -36.09961,10.82617 26.024,26.024 0 0 0 -2.02539,20.08594 26.3,26.3 0 0 0 12.99023,15.74414 l 8.25781,4.36132 -10.13867,10.00782 -22.66797,-11.97266 a 26.885,26.885 0 0 0 -36.10156,10.82617 26.025,26.025 0 0 0 -2.02344,20.08789 26.3,26.3 0 0 0 12.98633,15.74024 l 8.25781,4.36328 -10.07031,9.93164 -22.66797,-11.97266 a 26.884,26.884 0 0 0 -36.10156,10.82617 26.028,26.028 0 0 0 -2.02344,20.0879 26.3,26.3 0 0 0 12.98633,15.74023 l 8.25781,4.36133 -10.15234,10.02539 -22.66797,-11.97266 a 26.885,26.885 0 0 0 -36.09961,10.82422 26.03,26.03 0 0 0 -2.02539,20.08985 26.7,26.7 0 0 0 1.90039,4.64648 l -12.85351,-12.6875 a 6,6 0 0 0 -9.19922,0.92969 l -12.812503,19.09961 a 28.5,28.5 0 0 0 3.599613,36.07031 l -27.851566,27.32031 a 5.967,5.967 0 0 0 -1.236328,1.76172 h -0.0059 l -18.642578,40.18164 a 52.634,52.634 0 0 0 -31.349609,14.85547 51.644,51.644 0 0 0 0,73.67773 53.167,53.167 0 0 0 74.417969,0 51.432,51.432 0 0 0 15.111332,-30.98828 l 40.57421,-18.5 -0.008,-0.0176 a 5.954,5.954 0 0 0 1.72071,-1.1582 l 27.98046,-27.44531 0.42188,0.41406 a 28.623,28.623 0 0 0 35.57812,3.57227 l 19.82227,-12.95508 a 6,6 0 0 0 0.93164,-9.29297 l -30.30078,-29.9043 19.49414,-19.30273 22.66211,11.9707 a 26.887,26.887 0 0 0 36.09961,-10.82617 26.03,26.03 0 0 0 2.02539,-20.08789 26.308,26.308 0 0 0 -12.98828,-15.74219 l -8.25782,-4.36133 10.16016,-10.02539 22.66992,11.97266 a 26.887,26.887 0 0 0 36.09961,-10.82617 26.03,26.03 0 0 0 2.02735,-20.08789 26.305,26.305 0 0 0 -12.98828,-15.74219 l -8.25782,-4.36133 10.06055,-9.93164 22.66797,11.97266 a 26.89,26.89 0 0 0 36.10156,-10.82617 26.028,26.028 0 0 0 2.02344,-20.08985 26.3,26.3 0 0 0 -12.98633,-15.74023 l -8.25781,-4.36133 10.14453,-10.00586 22.66797,11.97461 a 26.888,26.888 0 0 0 36.09961,-10.82617 25.968,25.968 0 0 0 2.89453,-16.19922 20.879,20.879 0 0 0 25.6543,-2.81055 20.434,20.434 0 0 0 0,-29.08008 l -9.36329,-9.24023 37.29883,-51.246095 A 45.313,45.313 0 0 0 489.48047,25.410156 46.626,46.626 0 0 0 455.74805,11.962891 Z m 0.29492,12 a 34.644,34.644 0 0 1 25.00195,9.986328 33.383,33.383 0 0 1 3.60742,43.660156 l -36.22656,49.781245 -62.125,-61.32812 50.29883,-35.675781 a 34.644,34.644 0 0 1 19.44336,-6.423828 z m 0.78125,11.984375 a 21.711,21.711 0 0 0 -14.5957,6.171875 21.094,21.094 0 0 0 0,30.134765 21.711,21.711 0 0 0 30.33984,0 21.1,21.1 0 0 0 0,-30.136718 21.711,21.711 0 0 0 -15.74414,-6.169922 z m 0.83203,11.972656 a 9.663,9.663 0 0 1 6.49219,2.74414 9.1,9.1 0 0 1 0,13.033204 v 0.002 a 9.662,9.662 0 0 1 -13.5,0 9.1,9.1 0 0 1 0,-13.035157 9.663,9.663 0 0 1 7.00781,-2.74414 z M 353.77344,54.1875 a 8.842,8.842 0 0 1 5.96875,2.523438 l 98.25195,96.988282 a 8.435,8.435 0 0 1 0,12 8.844,8.844 0 0 1 -12.37695,0 L 347.36523,68.710938 a 8.435,8.435 0 0 1 0,-12 8.842,8.842 0 0 1 6.40821,-2.523438 z m 13.58789,51.12109 41.29101,40.76172 -1.12109,1.10742 -53.80078,-28.41601 z m -59.47461,4.49024 a 14.847,14.847 0 0 1 6.44531,1.7207 l 106.97852,56.50586 a 14.387,14.387 0 0 1 7.10742,8.61133 14.105,14.105 0 0 1 -1.0918,10.89062 14.845,14.845 0 0 1 -19.94726,5.9336 L 300.40039,136.95508 a 14.39,14.39 0 0 1 -7.10547,-8.60938 14.107,14.107 0 0 1 1.08985,-10.89258 14.847,14.847 0 0 1 13.50195,-7.65429 z m 6.29297,48.00586 53.80078,28.41601 -10.14063,10.00782 -53.79687,-28.41602 z m -55.98828,1.05078 a 14.845,14.845 0 0 1 6.44921,1.72265 l 106.98047,56.5 a 14.383,14.383 0 0 1 7.10547,8.60938 14.1,14.1 0 0 1 -1.08984,10.89062 14.848,14.848 0 0 1 -19.94727,5.93555 l -106.98242,-56.5 a 14.392,14.392 0 0 1 -7.10547,-8.61133 14.109,14.109 0 0 1 1.08985,-10.89062 14.845,14.845 0 0 1 13.5,-7.65625 z m 6.29882,48.00195 53.79883,28.41602 -10.06054,9.93164 -53.79883,-28.41602 z m -55.88476,0.97656 a 14.861,14.861 0 0 1 6.42578,1.7168 l 106.97461,56.50781 a 14.386,14.386 0 0 1 7.10547,8.61133 14.1,14.1 0 0 1 -1.08985,10.89063 14.847,14.847 0 0 1 -19.94726,5.93164 L 201.09961,234.98242 a 14.387,14.387 0 0 1 -7.10547,-8.60742 14.111,14.111 0 0 1 1.08984,-10.89258 14.861,14.861 0 0 1 13.52149,-7.64844 z m 6.26953,47.99805 53.80078,28.41602 -10.1543,10.02539 -53.80078,-28.41602 z m -55.98047,1.07617 a 14.861,14.861 0 0 1 6.42578,1.71485 l 106.98047,56.5 a 14.385,14.385 0 0 1 7.10547,8.60937 14.1,14.1 0 0 1 -1.0918,10.89063 14.848,14.848 0 0 1 -19.94726,5.93554 l -106.97852,-56.5 a 14.391,14.391 0 0 1 -7.10547,-8.61132 14.109,14.109 0 0 1 1.08985,-10.89063 14.861,14.861 0 0 1 13.52148,-7.64844 z m -40.31641,27.60938 108.60547,107.20898 -13.59961,8.88672 A 16.561,16.561 0 0 1 193,398.54688 L 111.91211,318.5 a 16.488,16.488 0 0 1 -2.10742,-20.90039 z m 27.53711,10.32031 7.95704,4.19922 -1.8418,1.83203 z m 19.07227,10.07227 53.79492,28.41406 -16.91211,16.75 -41.29883,-40.76953 z m -53.21289,30.50976 63.63672,62.82031 -23.62695,23.17774 -63.638677,-62.82422 z m -30.330079,33.42188 59.914059,59.14453 -27.84765,12.69531 A 51.444,51.444 0 0 0 98.773438,411.09961 52.6,52.6 0 0 0 68.855469,396.41211 Z m -19.060547,39.06054 a 41.118,41.118 0 0 1 27.757813,11.73633 39.64,39.64 0 0 1 0,56.59961 41.118,41.118 0 0 1 -57.554688,0 39.643,39.643 0 0 1 0,-56.59961 41.118,41.118 0 0 1 29.796875,-11.73633 z m -1.701172,13.20899 a 27.374,27.374 0 0 0 -18.472656,7.81055 26.668,26.668 0 0 0 0,38.03515 27.372,27.372 0 0 0 38.310547,0 26.671,26.671 0 0 0 0,-38.03515 27.374,27.374 0 0 0 -19.837891,-7.81055 z m 1.0625,11.97851 a 15.325,15.325 0 0 1 10.34375,4.37305 14.668,14.668 0 0 1 0,20.95508 15.323,15.323 0 0 1 -21.449218,0 14.668,14.668 0 0 1 0,-20.95508 15.325,15.325 0 0 1 11.105468,-4.37305 z"
         id="path6332"
         style="fill:#000000;fill-opacity:1" /></g></g></svg>
