<?xml version="1.0" encoding="UTF-8" standalone="no"?>
<!-- Created with Inkscape (http://www.inkscape.org/) -->

<svg
   width="105.83334mm"
   height="66.145844mm"
   viewBox="0 0 105.83334 66.145844"
   version="1.1"
   id="svg5"
   xml:space="preserve"
   inkscape:version="1.2 (dc2aedaf03, 2022-05-15)"
   sodipodi:docname="steering-icon-grey.svg"
   xmlns:inkscape="http://www.inkscape.org/namespaces/inkscape"
   xmlns:sodipodi="http://sodipodi.sourceforge.net/DTD/sodipodi-0.dtd"
   xmlns="http://www.w3.org/2000/svg"
   xmlns:svg="http://www.w3.org/2000/svg"><sodipodi:namedview
     id="namedview7"
     pagecolor="#ffffff"
     bordercolor="#000000"
     borderopacity="0.25"
     inkscape:showpageshadow="2"
     inkscape:pageopacity="0.0"
     inkscape:pagecheckerboard="0"
     inkscape:deskcolor="#d1d1d1"
     inkscape:document-units="mm"
     showgrid="false"
     inkscape:zoom="1.1999063"
     inkscape:cx="235.43505"
     inkscape:cy="83.75654"
     inkscape:window-width="1920"
     inkscape:window-height="1001"
     inkscape:window-x="-9"
     inkscape:window-y="-9"
     inkscape:window-maximized="1"
     inkscape:current-layer="layer1" /><defs
     id="defs2" /><g
     inkscape:label="Layer 1"
     inkscape:groupmode="layer"
     id="layer1"
     transform="translate(-46.361858,-197.70306)"><rect
       style="fill:#545164;fill-opacity:1;stroke-width:0.272261"
       id="rect306"
       width="105.83334"
       height="66.145836"
       x="46.361858"
       y="197.70306" /><g
       style="fill:#ffffff"
       id="g10749"
       transform="matrix(0.6890191,0,0,0.6890191,82.053053,213.56813)"><path
         d="m 25,2.5996094 c -6.5,0 -12.600781,2.8011718 -16.8007812,7.7011716 -1.4000001,0.1 -2.7996094,0.79961 -3.5996094,2.09961 C 2.1996094,16.200391 1,20.6 1,25 c 0,4.4 1.1996094,8.8 3.5996094,12.5 0.8,1.3 2.0996094,2.099219 3.5996094,2.199219 8.9000002,10.2 24.7015622,10.2 33.6015622,0 1.5,-0.1 2.79961,-0.899219 3.59961,-2.199219 C 47.800391,33.8 49,29.4 49,25 c 0,-4.4 -1.199609,-8.8 -3.599609,-12.5 -0.8,-1.3 -2.09961,-2.099219 -3.59961,-2.199219 C 37.600781,5.4007812 31.5,2.5996094 25,2.5996094 Z m 0,2 c 5.5,0 10.7,2.1996094 14.5,6.0996096 C 38.8,10.999219 38.200391,11.5 37.900391,12 34.500391,8.6 29.9,6.6992188 25,6.6992188 20.2,6.6992188 15.499609,8.6 12.099609,12 11.699609,11.5 11.1,10.999219 10.5,10.699219 14.3,6.7992187 19.5,4.5996094 25,4.5996094 Z m 0,4.2011718 c 4.6,0 8.9,1.9988278 12,5.2988278 -0.2,1.1 -3.91e-4,2.201172 0.599609,3.201172 0.6,0.9 1.000391,1.898438 1.400391,2.898438 -4.5,-1.7 -9.2,-2.59961 -14,-2.59961 -4.8,0 -9.5,0.89961 -14,2.59961 0.3,-1 0.800391,-1.998438 1.400391,-2.898438 0.6,-1 0.799609,-2.101172 0.599609,-3.201172 3.1,-3.4 7.4,-5.2988278 12,-5.2988278 z M 41.761719,12.1875 c 0.789062,0.07227 1.5,0.525391 1.9375,1.212891 C 45.899219,17.000391 47,21 47,25 c 0,4.1 -1.100781,8 -3.300781,11.5 -0.8,1.3 -2.39961,1.600781 -3.59961,0.800781 -1.1,-0.7 -1.598828,-2.301562 -0.798828,-3.601562 1.7,-2.7 2.5,-5.798828 2.5,-8.798828 0,-2.9 -0.8,-6.100782 -2.5,-8.800782 -0.7,-1.2 -0.4,-2.899609 1,-3.599609 0.4875,-0.2625 0.9875,-0.355859 1.460938,-0.3125 z M 8.4804688,12.28125 c 1.7638672,0.03008 3.4562502,1.855469 2.2187502,3.917969 C 8.9992188,18.999219 8.1992187,22.1 8.1992188,25 c 0,2.9 0.8,6.100781 2.5000002,8.800781 0.8,1.3 0.301172,2.79961 -0.7988284,3.59961 C 8.7003906,38.100391 7.1007813,37.7 6.3007812,36.5 4.1007812,33 3,29.1 3,25 3,21 4.1007813,17 6.3007812,13.5 c 0.5625,-0.875 1.3779297,-1.232422 2.1796876,-1.21875 z M 24.800781,19.5 c 5.1,0 9.99961,1 14.59961,3 v 0.09961 c 0.1,0.8 0.199218,1.600782 0.199218,2.300782 0,0.5 3.91e-4,0.898828 -0.09961,1.298828 v 0.101562 c -0.4,0 -0.799219,-0.101562 -1.199219,-0.101562 -6.6,0 -12,5.4 -12,12 0,1.3 0.199219,2.60039 0.699219,3.90039 0.2,0.5 0.699609,0.701172 1.099609,0.701172 3.7,-0.7 7.101172,-2.5 9.701172,-5 0.3,0.4 0.89961,0.998828 1.59961,1.298828 -7.9,8.3 -21.000391,8.201172 -28.900391,0.201172 0.6,-0.3 1.199609,-0.800781 1.599609,-1.300781 2.5,2.5 5.89961,4.4 9.59961,5 0.5,0.1 1.001562,-0.199219 1.101562,-0.699219 0.4,-1.2 0.59961,-2.50039 0.59961,-3.90039 0,-6.9 -5.900782,-12.7 -13.300782,-12 -0.1,-1.3 -0.1003902,-2.500391 0.09961,-3.900391 4.6,-2 9.501562,-3 14.601562,-3 z M 25,21.400391 c -2.4,0 -4.400391,2.00039 -4.400391,4.40039 0,2.4 2.000391,4.398438 4.400391,4.398438 2.4,0 4.400391,-1.998438 4.400391,-4.398438 0,-2.4 -2.000391,-4.40039 -4.400391,-4.40039 z m -8.400391,1.90039 c -0.6,0 -1,0.4 -1,1 0,0.6 0.5,1 1,1 0.5,0 1,-0.4 1,-1 0,-0.6 -0.4,-1 -1,-1 z m 16.800782,0 c -0.6,0 -1,0.4 -1,1 0,0.6 0.4,1 1,1 0.6,0 1,-0.4 1,-1 0,-0.6 -0.4,-1 -1,-1 z M 25,23.400391 c 1.3,0 2.400391,1.10039 2.400391,2.40039 0,1.3 -1.100391,2.398438 -2.400391,2.398438 -1.3,0 -2.400391,-1.098438 -2.400391,-2.398438 0,-1.3 1.100391,-2.40039 2.400391,-2.40039 z m -13.253906,4.947265 c 5.196533,0.03296 9.853515,4.427735 9.853515,10.052735 0,0.8 -0.09883,1.60039 -0.298828,2.40039 l -0.40039,-0.101562 C 15.800391,39.399219 13.1,36 13,36 c 0.2,-1 0,-2 -0.5,-3 -0.7,-1.2 -1.300391,-2.300391 -1.900391,-4.400391 v -0.199218 h 0.09961 c 0.35,-0.0375 0.700439,-0.05493 1.046875,-0.05273 z M 38.400391,28.5 h 0.90039 c -0.4,2 -1.000781,3 -1.800781,4.5 -0.5,1 -0.7,2 -0.5,3 -2.2,2.5 -5.200781,4.100391 -8.300781,4.900391 -0.2,-0.8 -0.298828,-1.600391 -0.298828,-2.400391 0,-5.5 4.5,-10 10,-10 z"
         id="path10740"
         style="fill:#ffffff" /></g></g></svg>
