<?xml version="1.0" encoding="UTF-8" standalone="no"?>
<!-- Created with Inkscape (http://www.inkscape.org/) -->

<svg
   width="105.83334mm"
   height="66.145844mm"
   viewBox="0 0 105.83334 66.145844"
   version="1.1"
   id="svg5"
   xml:space="preserve"
   inkscape:version="1.2 (dc2aedaf03, 2022-05-15)"
   sodipodi:docname="turbo-icon-grey.svg"
   xmlns:inkscape="http://www.inkscape.org/namespaces/inkscape"
   xmlns:sodipodi="http://sodipodi.sourceforge.net/DTD/sodipodi-0.dtd"
   xmlns="http://www.w3.org/2000/svg"
   xmlns:svg="http://www.w3.org/2000/svg"><sodipodi:namedview
     id="namedview7"
     pagecolor="#ffffff"
     bordercolor="#000000"
     borderopacity="0.25"
     inkscape:showpageshadow="2"
     inkscape:pageopacity="0.0"
     inkscape:pagecheckerboard="0"
     inkscape:deskcolor="#d1d1d1"
     inkscape:document-units="mm"
     showgrid="false"
     inkscape:zoom="1.1999063"
     inkscape:cx="235.43505"
     inkscape:cy="83.75654"
     inkscape:window-width="1920"
     inkscape:window-height="1001"
     inkscape:window-x="-9"
     inkscape:window-y="-9"
     inkscape:window-maximized="1"
     inkscape:current-layer="layer1" /><defs
     id="defs2" /><g
     inkscape:label="Layer 1"
     inkscape:groupmode="layer"
     id="layer1"
     transform="translate(-46.361858,-197.70306)"><rect
       style="fill:#545164;fill-opacity:1;stroke-width:0.272261"
       id="rect306"
       width="105.83334"
       height="66.145836"
       x="46.361858"
       y="197.70306" /><path
       style="fill:#ffffff;fill-opacity:1;fill-rule:nonzero;stroke:none;stroke-width:0.0718976"
       d="m 110.6473,215.67748 c -0.34264,0.0646 -0.58978,0.36791 -0.58417,0.71898 v 0.71897 H 95.68361 c -7.13922,0 -12.94158,5.80237 -12.94158,12.94158 0,3.71846 1.59523,7.05215 4.11165,9.4141 l -1.19081,3.28033 c -0.0281,0.0786 -0.0449,0.16289 -0.0449,0.24714 v 2.15693 c 0,0.396 0.32298,0.71898 0.71898,0.71898 h 18.69339 c 0.396,0 0.71898,-0.32298 0.71898,-0.71898 v -2.15693 c 0,-0.0842 -0.0168,-0.16851 -0.0449,-0.24714 l -1.1908,-3.28033 c 2.51641,-2.36195 4.11164,-5.69564 4.11164,-9.4141 0,-1.5194 -0.32578,-2.95735 -0.80885,-4.31386 h 2.2468 v 0.71898 c 0,0.39599 0.32298,0.71897 0.71898,0.71897 h 4.31386 c 0.396,0 0.71898,-0.32298 0.71898,-0.71897 v -10.06567 c 0,-0.396 -0.32298,-0.71898 -0.71898,-0.71898 h -4.31386 c -0.0225,0 -0.0449,0 -0.0674,0 -0.0225,0 -0.0449,0 -0.0674,0 z m 0.85379,1.43795 h 2.8759 v 8.62772 h -2.8759 v -0.60664 c 0.003,-0.0365 0.003,-0.0758 0,-0.11234 v -7.18976 c 0,-0.0225 0,-0.0449 0,-0.0674 z m -15.81748,1.43795 h 14.37952 v 5.75182 H 95.68361 c -3.9628,0 -7.18977,3.22696 -7.18977,7.18976 0,3.9628 3.22697,7.18977 7.18977,7.18977 3.96279,0 7.18976,-3.22697 7.18976,-7.18977 0,-2.35352 -1.14587,-4.44024 -2.89837,-5.75181 h 6.35844 c 0.53924,1.33123 0.85379,2.78323 0.85379,4.31386 0,6.36125 -5.14237,11.50362 -11.50362,11.50362 -6.36126,0 -11.50363,-5.14237 -11.50363,-11.50362 0,-6.36126 5.14237,-11.50363 11.50363,-11.50363 z m 0,7.18977 c 3.18484,0 5.75181,2.56697 5.75181,5.75181 0,3.18484 -2.56697,5.75181 -5.75181,5.75181 -3.18485,0 -5.75182,-2.56697 -5.75182,-5.75181 0,-3.18484 2.56697,-5.75181 5.75182,-5.75181 z m -1.88732,1.03353 -1.25821,0.71898 1.50536,2.60628 c -0.1657,0.1966 -0.29489,0.4269 -0.38196,0.67404 h -3.01071 v 1.43796 h 3.01071 c 0.0871,0.24715 0.21626,0.47744 0.38196,0.67404 l -1.50536,2.60629 1.25821,0.71897 1.50536,-2.60629 c 0.12638,0.0225 0.24996,0.0449 0.38196,0.0449 0.132,0 0.25557,-0.0225 0.38195,-0.0449 l 1.50536,2.60629 1.25821,-0.71897 -1.50536,-2.60629 c 0.1657,-0.1966 0.2949,-0.42689 0.38196,-0.67404 h 3.01071 v -1.43796 h -3.01071 c -0.0871,-0.24714 -0.21626,-0.47744 -0.38196,-0.67404 l 1.50536,-2.60628 -1.25821,-0.71898 -1.50536,2.60629 c -0.12638,-0.0225 -0.24995,-0.0449 -0.38195,-0.0449 -0.132,0 -0.25558,0.0225 -0.38196,0.0449 z m -5.77428,13.68302 c 2.14851,1.5868 4.79131,2.53888 7.6616,2.53888 2.87029,0 5.51308,-0.95208 7.66159,-2.53888 l 0.96612,2.65122 v 1.32562 H 87.05589 v -1.32562 z m 0,0"
       id="path6295" /></g></svg>
